<svg xmlns="http://www.w3.org/2000/svg" viewBox="0 0 1271.6 229.6"><defs><style>.cls-1,.cls-2{fill:#fff;}.cls-2{opacity:0.2;}</style></defs><title>자산 4</title><g id="레이어_2" data-name="레이어 2"><g id="레이어_1-2" data-name="레이어 1"><polygon class="cls-1" points="0 227.46 0.07 212.97 12.24 213.03 12.29 202.86 19.24 202.89 19.27 197.41 25.93 197.44 25.9 202.53 37.78 202.59 37.76 206.89 44.13 206.92 44.09 215.93 52.2 215.97 52.25 205.79 61.52 205.83 61.64 182.34 68.59 182.38 68.61 178.46 75.85 178.5 75.83 183.19 78.72 183.21 78.77 173.81 87.75 173.86 87.72 178.95 92.65 178.97 92.52 207.16 97.73 207.18 97.7 212.66 104.08 212.69 104.28 171.2 111.65 171.23 111.67 166.53 128.63 166.62 128.61 171.31 137.3 171.35 137.11 211.68 171.87 211.84 172.15 153.91 176.21 153.92 176.23 148.44 185.79 148.49 185.77 153.19 192.15 153.22 191.87 210.76 197.95 210.79 198.2 159.12 202.26 159.14 202.28 153.27 214.16 153.32 214.14 157.63 219.07 157.65 218.92 188.58 224.13 188.6 224.16 182.34 229.67 182.37 229.64 188.63 234.56 188.65 234.61 178.48 262.13 178.61 261.99 209.53 270.68 209.57 270.78 188.83 297.43 188.96 297.34 207.75 311.25 207.81 311.41 173.36 316.05 173.39 316.07 167.51 326.21 167.56 326.19 173.04 336.91 173.09 336.88 178.97 346.15 179.01 346 209.15 352.09 209.18 352.19 187.26 355.96 187.28 355.99 181.8 366.7 181.85 366.68 187.33 373.34 187.36 373.26 204.59 397.59 204.7 397.9 139.72 400.8 139.73 400.88 123.68 405.51 123.71 405.56 113.92 432.5 114.05 432.46 123.44 440.57 123.48 440.16 208.82 448.56 208.86 448.75 169.72 452.81 169.74 452.86 158.38 458.66 158.41 458.63 163.89 465.58 163.93 465.56 167.84 471.65 167.87 471.45 209.36 476.37 209.39 476.41 200.78 483.37 200.81 483.58 157.36 486.47 157.37 489.24 153.66 499.24 153.71 499.22 158.21 503.85 158.24 503.62 206.78 527.38 206.89 527.71 136.04 539.59 136.09 539.56 141.97 542.46 141.98 542.48 138.06 560.44 138.15 560.41 143.63 565.92 143.66 565.62 206.68 572.57 206.72 572.67 186.75 578.17 186.78 578.2 181.3 585.46 181.33 585.43 186.81 592.95 186.85 592.85 206.03 603.86 206.08 604.09 158.32 607.86 158.34 607.94 141.9 632.56 142.02 632.53 149.07 638.9 149.1 638.75 180.02 655.55 180.1 656.09 68.53 658.12 68.55 658.15 61.89 672.92 61.96 672.91 65.09 681.6 65.13 681.04 182.97 703.05 183.07 703.2 151.75 720.01 151.83 720.13 126.39 744.47 126.51 744.42 134.73 750.22 134.75 750.12 154.72 757.08 154.75 757.11 148.1 773.04 148.17 773.01 155.22 780.25 155.25 780.19 168.56 784.53 168.59 784.76 120.04 789.11 120.06 789.16 110.67 797.56 110.71 808.57 110.76 808.54 115.46 817.81 115.5 817.68 143.69 827.53 143.74 827.56 137.08 838.28 137.13 838.26 141.83 852.16 141.9 852.12 152.08 857.04 152.1 857.06 147.21 861.7 147.23 861.72 141.94 872.73 142 872.71 147.28 880.24 147.32 880.22 150.64 883.7 150.66 883.65 161.62 889.15 161.65 889.18 154.6 900.19 154.66 900.22 149.96 905.14 149.98 905.15 147.44 915.87 147.49 915.85 152.77 923.38 152.81 923.36 157.9 932.34 157.94 932.31 164.2 936.65 164.22 936.5 197.11 938.52 197.12 938.57 188.11 942.33 188.13 942.47 159.95 944.78 159.96 944.81 155.26 952.92 155.3 952.9 159.61 955.5 159.62 955.39 184.67 959.15 184.69 959.33 147.7 980.77 147.8 980.72 157.78 983.41 157.79 983.35 169.15 985.01 169.16 984.87 199.3 990.95 199.33 990.97 195.02 993.58 195.03 993.63 184.46 995.95 184.47 996.14 142.98 1012.37 143.06 1012.25 168.11 1014.86 168.12 1014.77 184.96 1022.02 184.99 1021.94 200.65 1026.58 200.67 1026.62 192.45 1034.44 192.49 1034.46 187.4 1060.83 187.53 1060.85 182.05 1067.52 182.08 1067.49 188.34 1074.44 188.38 1074.37 202.86 1080.16 202.89 1080.23 189.58 1084.28 189.6 1084.38 168.46 1088.44 168.48 1088.48 159.86 1093.12 159.89 1095.89 156.18 1104.43 156.22 1104.65 111.79 1122.03 111.87 1121.81 156.89 1131.37 156.94 1131.21 191.39 1136.71 191.41 1136.92 148.55 1151.98 148.62 1151.96 153.12 1166.45 153.19 1166.37 168.85 1173.33 168.88 1173.38 157.14 1184.1 157.19 1184.13 150.93 1193.69 150.97 1193.51 189.34 1208.28 189.41 1208.49 145.56 1211.1 145.58 1211.12 142.05 1226.47 142.13 1226.44 148.98 1243.53 149.06 1243.32 193.49 1251.43 193.53 1251.36 206.84 1260.34 206.88 1260.42 190.83 1265.06 190.85 1265.09 184.2 1271.46 184.23 1271.3 223.76 0 227.46"/><path class="cls-2" d="M973.31,167.42c0,.05,0,.09.12.12S973.36,167.38,973.31,167.42Z"/><path class="cls-2" d="M1261.34,219.92c.11-11.35-8.56-14.25-8.56-14.25l2.56.06v-3.15l-2.56.09,0-2.51-2.42,0v-6.36l-1.52-.11-.11-1.76-4-.93.15-1.74,2.25,0,.06-1.17,1.52-.53.35-1.46,1.4-.41-1.11-10.76s5.15-6,5-6-3.1-3.75-3.1-3.75l-2.87,2.34-3.15-6.12h-2.81l-2-2.71,1.64-1.81.18-2.76,3-.41-2.75-.81,2.75-1.64-3.57-.12,2.05-2.4-3.34,1.7-.29-3-1.4,2.86-.94-.06-2-1.64,1,2.87-2.1-.29V149l-.5-.27-.21-7.78-1.31-1.84,0-.39,2.4-.05v-2.17l-.59-.76-1.75-.12-.18-.63,1.93-.24V133l-.64-1-.06-.85-.7-.82,1-2.11v-1.52l-4,5.3v2.19l.71.83.17.52h-.7l-.7.93v2.34l1,.59V142h1.34v2.73l-2.17,9.87v3.93l1.24,1v4.34l1,2.25-1,5.81v2.27h1.2l.2,1.09-.15,4.7h.93l0,5.17-1,3.71v10.84l-2,0v2.87l-2.84,0,.63,3.47,2.4,0-2.71,5.06s-1.26-9.14-11.67-14.82a31.24,31.24,0,0,0-2.83-1.34c-4.74-5.84-13.72-4.75-13.72-4.75v-4.67l-1.88.57a6,6,0,0,0-2.48-3.61V149.8h-11.71v24.08h-.81V184l-.45.46h-3.16V91.32L1164,91.13v75a12,12,0,0,0-3.85,1.25V99.2l-10.91-10.91L1136.17,99l.17,58.58a11,11,0,0,0-5.17.58V47.71l-7.33-.09-.13-1.51,5.72,0,1.74-.8V44.08l-1.4-1.13-6.18-.13-1-42.82-1.08,42.83H1115l-1.39,1,.12,1.52,1.52.76h6.25v1.21h-8.42V153.53l-3.11-2.67-5,5.68v6.94h-1.58v16.39h-1.58v7.36h-3.37V149h-3.57V137.24H1088V149h-.9v10.54h-10.68v1.74l-2.39,0v.59h-.93v-7.75h-1.95V150.4h-13.51v17.91h-4.94v14.4h-2.45V180.1h-4.18v-1.72h-2v-2.46h-2.45v6.79H1040V170.1L1036.5,149,1033,170.1v12l-1.19.3V144.44h-18.07v7.65h-2.59v15.33h-.8l-1.31-6.2-1.68,6.2h-4.57v-14.1h-3.44v3h-9.82v-2.21h-4.67v3.19h-3.44v-2.46h-3.69v12.78a24.75,24.75,0,0,1-4.32,0c.27,1-.12,7.78-.12,7.78h-2.72v8.34h-2.21V170.41l-2.52-4.73-2.53,5.68v9.46h-1.87V146h-13v5.58H947v12h-4.67V146.68h-8.28V133.11H923.56v6.7H913.37v26.5h-1v10.88l-.95,1V95h-1.93V81.26h-1.93V75.47h-1.93V73.19h-2.11V70l-1.75.35V68.8l-1-.17s-.1-13.34,0-15.8c.1-2.75-2.78-3-2.78-3v-7h-.88v6.93c-3.38.13-3.54,2.72-3.54,2.72V70h-2.63v2.81h-2.11v2.81l-2.1.17v4.91l-1.58.18V94.77h-1.06v69.78l-1.62,1.3v1.41h-.16v4H880V131.94H869.25v42.27h-.46l-5-5.05V134.89h-3.19v-2.95h-8.41V112.09h-7.46v41h-7V118.45h-9v52.81H826.4v-3.2l-3.71.18v-4.45h-.23v-2.85H819v-2.46h-1.1V135.07H805.45v21.44H803V135.07H791.82v17.76h-3.51v7.28l-1.26-.73-1.58,1.84v2.88l-1.57.32v15.75h-2.48v-49.9l-1.06-1.06v-5.48l-2.14-2.14V109l-3-2.88v-3.92l-.46-.57V98.43l-.81-.7V93.59l-1.15-.23V89.21l-.46-.35V86.21l-.69-.58V83.21l-.92-2,0-18.69v.35l-.44,18.34h-.57v3.46L768,88.28v3.06l-1.79,1.78V97h-1.18v4.24l-.84.84v3.4l-.63.63v3.57h-.68V122h-1.71v3.14h-2V178h-2.41v-2.84h-.47v-4.2h-.92V149H732.82v22.75h-4.46v-.46H722v.46h-3.19v-4.64H707.41v-.82h-4.68v-4.42H699.6v4.42h-9.88V163.4H686.6v4.16H683v12.33h-4.17V166.26h-3.12v-3.12h-4.16v3.64h-2.08v9.88h-1.82v3.23h-5.72V133.22h-2.6v-5.46h-22.9v5.72h-1.82V113.71h-9.1v-3.12h-6.24v3.9h-2.87V154H610.9V138.42h-2.08V127.5l-1.3-1.3V106.43H604.4V97.06H594v8.07h-2.6v3.64h-2.34V130.1h-3.38v-9.62H560.18V133h-6.51v-2.34h-4.42v3.64h-8.58v-6h-7v-4.42H528.7v3.38H514.13V149.3H501.65v3.93H497.1v22h-4.56v3.6H490.2v-30h-9.76v-1.5h-15V151h-2.58v3.64h-3.94v-1.52H439.85V141.42h-3.64V134.3h-3.79v-2.42h-4.08v-3.34H423v3.64H419.4v2.88h-2.58v6.81h-4.09V146H401.37V119.46H377v18.93H365.78v12.88h-1.67v7.11h-3.94v-3.33h-1.81v-5.91H342.91v8.34h-1.82v4.39h-5.15v-3H316v3.63H311.4v35.9h-2.12v-5.6h-3.79V165.2H300.8v-2.58h-3v-4.24H285.65v4.85h-3v10.45H266.56v3.64h-2.72v5.91h-4.4V141.87H256v-9.54H250.2v-1.82h-4.69v2h-2v5.15h-5.3v-5.15h-2.73V134h-9.69v56.5H206.58v-4.4H190.22v5.76H188v-3.64h-7.42v-2H170.08v-2.87h-7.27v3.48h-9.24v3.48h-8.64v14.09h-15.3v-4.09H116.76v-6.51h-5.15v3.94h-3.18v-5.46H96.31v3.94H89.65v23.58l595.54-.21v.67ZM649.79,207.31V204.5h4.09v2.81Z"/><rect class="cls-1" y="221.26" width="1271.6" height="8.34"/></g></g></svg>